<svg width="106" height="25" viewBox="0 0 106 25" fill="none" xmlns="http://www.w3.org/2000/svg">
<path fill-rule="evenodd" clip-rule="evenodd" d="M0.438762 1.43187H7.26632C11.6266 1.43187 15.2184 3.94776 15.2184 9.69945V10.9129C15.2184 16.7131 11.8451 19.3179 7.39578 19.3179H0.430664V1.43187H0.438762ZM4.25702 4.6677V16.0416H7.17735C9.65276 16.0416 11.3111 14.4237 11.3111 10.832V9.88549C11.3111 6.29372 9.55565 4.6758 7.03979 4.6758H4.25702V4.6677ZM17.2408 4.85375H20.2986L20.7921 8.22714C21.3745 5.93779 22.863 4.72434 25.5568 4.72434H26.5034V8.59118H24.9339C21.8356 8.59118 21.0672 9.66708 21.0672 12.7249V19.3746H17.2893V4.86185H17.2408V4.85375ZM27.2637 12.4013V11.9969C27.2637 7.14311 30.3621 4.48976 34.5929 4.48976C38.9047 4.48976 41.9221 7.14311 41.9221 11.9969V12.4013C41.9221 17.1661 39.0018 19.7305 34.5929 19.7305C29.9172 19.682 27.2637 17.1661 27.2637 12.4013ZM38.0553 12.3528V11.9969C38.0553 9.30303 36.7043 7.6851 34.5525 7.6851C32.4411 7.6851 31.0497 9.16551 31.0497 11.9969V12.3528C31.0497 14.9576 32.4006 16.4461 34.5525 16.4461C36.7043 16.3976 38.0553 14.9657 38.0553 12.3528ZM43.896 4.85375H47.0428L47.3987 7.59613C48.1591 5.7517 49.7771 4.49785 52.1635 4.49785C55.8523 4.49785 58.2793 7.1512 58.2793 12.0454V12.4499C58.2793 17.2146 55.5854 19.7305 52.1635 19.7305C49.8741 19.7305 48.2967 18.6951 47.5363 17.0367V24.3659H43.8474L43.896 4.85375ZM54.4529 12.3528V12.0373C54.4529 9.15741 52.9725 7.72559 50.9905 7.72559C48.8792 7.72559 47.4877 9.34347 47.4877 12.0373V12.3043C47.4877 14.8687 48.8387 16.4866 50.9501 16.4866C53.11 16.4461 54.4529 15.0547 54.4529 12.3528ZM63.8449 16.6727L63.5294 19.326H60.2936V0H63.9824V7.41818C64.7913 5.53331 66.4093 4.49785 68.6986 4.49785C72.161 4.54639 74.7172 6.92468 74.7172 11.7299V12.183C74.7172 16.9882 72.2904 19.7305 68.6016 19.7305C66.1828 19.682 64.6134 18.5575 63.8449 16.6727ZM70.8585 12.1749V11.8189C70.8585 9.16553 69.4186 7.6851 67.3962 7.6851C65.3253 7.6851 63.8934 9.35159 63.8934 11.8674V12.183C63.8934 14.8768 65.2848 16.4542 67.3557 16.4542C69.5561 16.4461 70.8585 15.0547 70.8585 12.1749ZM76.3433 12.4013V11.9969C76.3433 7.14311 79.4416 4.48976 83.6725 4.48976C87.9842 4.48976 91.0016 7.14311 91.0016 11.9969V12.4013C91.0016 17.1661 88.0328 19.7305 83.6725 19.7305C78.9967 19.682 76.3433 17.1661 76.3433 12.4013ZM87.1752 12.3528V11.9969C87.1752 9.30303 85.8243 7.6851 83.6725 7.6851C81.5611 7.6851 80.1696 9.16551 80.1696 11.9969V12.3528C80.1696 14.9576 81.5206 16.4461 83.6725 16.4461C85.8243 16.3976 87.1752 14.9657 87.1752 12.3528ZM95.9362 11.8189L90.856 4.85375H95.2162L98.1366 9.21404L101.105 4.85375H105.417L100.248 11.7785L105.684 19.326H101.413L98.0881 14.5208L94.8522 19.326H90.403L95.9362 11.8189Z" fill="#98A2B3"/>
</svg>
