<svg width="120" height="24" viewBox="0 0 120 24" fill="none" xmlns="http://www.w3.org/2000/svg">
<path d="M11.4819 0.00278649V3.63118H9.47245C9.47245 3.63118 7.65824 3.37168 7.65824 5.12158V7.9738H11.4819L11.0272 11.9122H7.65824V22.9444H3.25134V11.8617H0.270508V7.9738H3.38223V4.66919C3.38223 4.66919 2.99412 2.85498 4.61313 1.36457C6.23443 -0.125831 8.37243 0.00278649 8.37243 0.00278649H11.4819V0.00278649Z" fill="#98A2B3"/>
<path d="M22.1072 8.03805V10.0153C20.9819 8.53638 19.4111 7.61548 17.6704 7.61548C14.2533 7.61548 11.4814 10.6284 11.4814 15.5383C11.4814 20.416 14.2533 23.4611 17.6704 23.4611C19.4272 23.4611 21.0118 22.5241 22.1393 21.0199L22.1095 22.9421H26.3533V8.03575H22.1072V8.03805ZM21.8706 17.0149C21.8706 18.5191 20.5938 19.9314 19.0161 19.9314C17.4385 19.9314 16.1616 18.5191 16.1616 17.0149V14.1627C16.1616 12.6585 17.4385 11.2462 19.0161 11.2462C20.5938 11.2462 21.8706 12.6585 21.8706 14.1627V17.0149Z" fill="#98A2B3"/>
<path d="M61.0306 23.0408V21.0636C62.1559 22.5425 63.7266 23.4634 65.4673 23.4634C68.8845 23.4634 71.6563 20.4504 71.6563 15.5406C71.6563 10.6629 68.8845 7.61778 65.4673 7.61778C63.7106 7.61778 62.126 8.55474 60.9984 10.0589L61.0283 0.213989L56.6145 0.710033V22.9719L61.0306 23.0408ZM61.2671 14.0663C61.2671 12.5621 62.544 11.1497 64.1216 11.1497C65.6993 11.1497 66.9761 12.5621 66.9761 14.0663V16.9185C66.9761 18.4226 65.6993 19.835 64.1216 19.835C62.544 19.835 61.2671 18.4226 61.2671 16.9185V14.0663Z" fill="#98A2B3"/>
<path d="M35.9456 19.8488C35.9456 19.8488 32.5423 20.044 32.5423 15.6371V15.3959C32.5423 10.989 35.9456 11.1842 35.9456 11.1842C38.2467 11.1521 39.0573 11.9627 39.0573 11.9627L40.1275 8.75457C38.2811 7.39277 32.7076 7.16771 30.2113 9.46647C28.0527 11.4575 28.0527 14.684 28.0917 15.5176C28.0527 16.3513 28.0527 19.5778 30.2113 21.5688C32.7053 23.8699 38.2788 23.6425 40.1275 22.2807L39.0573 19.0726C39.0573 19.0703 38.2467 19.8809 35.9456 19.8488Z" fill="#98A2B3"/>
<path d="M54.7728 17.1114C54.7728 17.1114 56.5548 7.77859 48.0327 7.72807C39.5105 7.67755 40.7414 16.1721 40.7414 16.1721C40.9366 21.3254 43.3019 22.8158 47.3506 23.3004C51.4016 23.7872 54.4788 22.2302 54.4788 22.2302L53.5396 19.2172C53.5396 19.2172 50.2671 20.2208 47.6744 19.9958C45.0817 19.7684 45.2769 17.1114 45.2769 17.1114H54.7728V17.1114ZM45.2149 14.0985C45.2149 14.0985 44.9875 10.7938 47.9684 10.7938C50.9492 10.7938 50.7218 14.0985 50.7218 14.0985H45.2149Z" fill="#98A2B3"/>
<path d="M80.438 7.81989C74.8897 7.81989 73.0227 11.1658 73.0227 15.6416C73.0227 20.3884 75.4294 23.4634 80.438 23.4634C84.5326 23.4634 87.8533 20.7122 87.8533 15.6416C87.851 11.322 85.7336 7.81989 80.438 7.81989ZM83.3269 16.9346C83.3269 18.4387 82.0157 19.8511 80.3989 19.8511C78.7822 19.8511 77.471 18.4387 77.471 16.9346V14.0823C77.471 12.5782 78.7822 11.1658 80.3989 11.1658C82.0157 11.1658 83.3269 12.5782 83.3269 14.0823V16.9346Z" fill="#98A2B3"/>
<path d="M96.8098 7.81982C91.2615 7.81982 89.3945 11.1658 89.3945 15.6416C89.3945 20.3884 91.8012 23.4633 96.8098 23.4633C100.904 23.4633 104.225 20.7122 104.225 15.6416C104.225 11.3219 102.108 7.81982 96.8098 7.81982ZM99.7011 16.9345C99.7011 18.4387 98.3898 19.851 96.7731 19.851C95.1564 19.851 93.8451 18.4387 93.8451 16.9345V14.0823C93.8451 12.5781 95.1564 11.1658 96.7731 11.1658C98.3898 11.1658 99.7011 12.5781 99.7011 14.0823V16.9345Z" fill="#98A2B3"/>
<path d="M119.771 23.0087L114.923 15.5039L119.555 8.00137H114.818L110.291 14.7185V0.135986L105.841 0.604474V23.0087H110.291V15.3753L115.176 23.0087H119.771Z" fill="#98A2B3"/>
</svg>
