<svg width="32" height="32" viewBox="0 0 32 32" fill="none" xmlns="http://www.w3.org/2000/svg">
<path d="M15.9998 2.66669C23.3519 2.66669 29.3336 8.64763 29.3337 15.9997C29.3337 23.3519 23.352 29.3337 15.9998 29.3337C8.64769 29.3335 2.66675 23.3518 2.66675 15.9997C2.66692 8.64774 8.6478 2.66686 15.9998 2.66669ZM15.9998 3.99969C9.38348 3.99987 3.99993 9.38342 3.99976 15.9997C3.99976 22.6161 9.38337 27.9995 15.9998 27.9997C22.6163 27.9997 27.9998 22.6162 27.9998 15.9997C27.9996 9.38331 22.6162 3.99969 15.9998 3.99969ZM15.9998 7.99969C16.3272 7.99969 16.5995 8.23551 16.656 8.54657L16.6667 8.66669V15.3337H23.3337C23.6611 15.3338 23.9326 15.5695 23.989 15.8806L23.9998 15.9997C23.9998 16.3272 23.764 16.5995 23.4529 16.6559L23.3337 16.6667H16.6667V23.3337C16.6666 23.6611 16.4309 23.9326 16.1199 23.989L15.9998 23.9997C15.6724 23.9995 15.4009 23.7639 15.3445 23.4528L15.3337 23.3337V16.6667H8.66675C8.3392 16.6667 8.0669 16.431 8.0105 16.1198L7.99976 15.9997C7.99991 15.6724 8.2357 15.4009 8.54663 15.3444L8.66675 15.3337H15.3337V8.66669C15.3337 8.33914 15.5695 8.06684 15.8806 8.01044L15.9998 7.99969Z" fill="#104F98"/>
</svg>
