<svg width="32" height="32" viewBox="0 0 32 32" fill="none" xmlns="http://www.w3.org/2000/svg">
<path d="M15.9996 2.66669C23.3517 2.66669 29.3334 8.64763 29.3336 15.9997C29.3336 23.3519 23.3518 29.3337 15.9996 29.3337C8.64757 29.3335 2.66663 23.3518 2.66663 15.9997C2.6668 8.64774 8.64768 2.66686 15.9996 2.66669ZM15.9996 3.99969C9.38335 3.99987 3.99981 9.38342 3.99963 15.9997C3.99963 22.6161 9.38325 27.9995 15.9996 27.9997C22.6162 27.9997 27.9996 22.6162 27.9996 15.9997C27.9995 9.38331 22.6161 3.99969 15.9996 3.99969ZM23.3336 15.3337C23.7018 15.3339 23.9995 15.6315 23.9996 15.9997C23.9996 16.3272 23.7639 16.5995 23.4528 16.6559L23.3336 16.6667H8.66663C8.29814 16.6667 7.99963 16.3682 7.99963 15.9997C7.99979 15.6724 8.23558 15.4009 8.54651 15.3444L8.66663 15.3337H23.3336Z" fill="#104F98"/>
</svg>
