<svg width="117" height="23" viewBox="0 0 117 23" fill="none" xmlns="http://www.w3.org/2000/svg">
<path d="M103.01 0.871913C104.508 -0.102746 106.443 -0.193484 108.131 0.270918C108.145 1.27387 108.132 2.2778 108.137 3.28173C107.335 2.92855 106.392 2.6983 105.548 3.04465C104.879 3.31002 104.481 3.99687 104.376 4.68372C104.25 5.55496 104.332 6.43791 104.311 7.31403C106.024 7.31793 107.737 7.315 109.451 7.31598C109.463 6.20376 109.437 5.09055 109.465 3.97833C110.63 3.64662 111.782 3.2749 112.941 2.92562C112.951 4.39103 112.928 5.85741 112.954 7.32379C114.112 7.3072 115.271 7.31988 116.43 7.31598V10.1687C115.267 10.1209 114.103 10.1561 112.94 10.1522C112.945 11.7922 112.941 13.4322 112.942 15.0733C112.961 15.9816 112.894 16.8948 113 17.8001C113.064 18.3338 113.258 18.9251 113.759 19.2012C114.597 19.6704 115.66 19.4656 116.43 18.9504V21.8315C115.426 22.2676 114.304 22.4003 113.218 22.3232C112.188 22.2471 111.121 21.8724 110.449 21.0529C109.672 20.127 109.472 18.8733 109.456 17.7006C109.448 15.1835 109.457 12.6664 109.453 10.1482C107.738 10.1473 106.024 10.1463 104.311 10.1492C104.309 14.0996 104.31 18.0499 104.31 22.0003C103.139 22.0003 101.967 22.0003 100.797 22.0003C100.797 18.0509 100.792 14.1025 100.799 10.1531C99.984 10.1375 99.1684 10.157 98.3537 10.1404C98.3566 9.20286 98.3605 8.26429 98.3517 7.32573C99.1625 7.3072 99.9742 7.315 100.787 7.32086C100.846 6.074 100.656 4.79104 101.029 3.57637C101.344 2.47976 102.045 1.49047 103.01 0.871913Z" fill="#98A2B3"/>
<path d="M27.7908 1.07675C28.4991 0.969428 29.2659 1.21138 29.7352 1.76555C30.2855 2.37239 30.387 3.33827 29.9791 4.04756C29.5284 4.84758 28.5196 5.21929 27.6405 5.02709C26.7283 4.86319 25.9683 4.01536 26.0093 3.06997C25.9829 2.07482 26.8151 1.18797 27.7908 1.07675Z" fill="#98A2B3"/>
<path d="M0.8663 1.51194C2.56976 1.51194 4.27224 1.51194 5.9757 1.51194C7.56598 5.55009 9.16797 9.58434 10.7602 13.6225C11.167 14.6323 11.5475 15.6538 11.9739 16.6557C14.0198 11.6098 16.095 6.57646 18.1253 1.52364C19.7634 1.4973 21.4024 1.51779 23.0415 1.51388C23.0376 8.34235 23.0396 15.1708 23.0405 21.9993C21.8581 21.9964 20.6766 22.009 19.4951 21.9925C19.5078 16.9533 19.4941 11.9142 19.5009 6.87402C19.5029 6.64767 19.4951 6.42133 19.4795 6.19498C19.4102 6.30035 19.3487 6.40962 19.2951 6.5228C17.2648 11.681 15.1954 16.8245 13.1769 21.9876C12.3359 22.0178 11.4939 21.9895 10.6519 22.0032C8.55722 16.845 6.48889 11.6751 4.40493 6.51304C4.35029 6.40572 4.29175 6.30133 4.22833 6.20084C4.18541 8.4087 4.22151 10.6185 4.2098 12.8264C4.21078 15.884 4.20785 18.9417 4.21078 21.9993C3.09563 22.0022 1.98047 21.9993 0.8663 22.0003C0.865324 15.1708 0.864349 8.34138 0.8663 1.51194Z" fill="#98A2B3"/>
<path d="M37.4595 7.30233C39.1551 6.8194 40.9835 6.83891 42.6781 7.31795C43.0274 7.41551 43.366 7.55112 43.6801 7.73552C43.6606 8.85457 43.6801 9.9746 43.6694 11.0946C42.5367 10.2292 41.0996 9.68093 39.6595 9.8624C38.5161 9.96582 37.4253 10.559 36.7414 11.4829C35.8624 12.6283 35.6594 14.1493 35.8106 15.5503C35.9238 16.647 36.3775 17.7426 37.2302 18.4695C38.1161 19.2568 39.3581 19.5358 40.5171 19.448C41.6625 19.3163 42.7435 18.8314 43.6694 18.1543C43.6791 19.2148 43.6645 20.2754 43.6772 21.3359C42.2411 22.1905 40.5191 22.411 38.8751 22.33C37.1931 22.2413 35.516 21.6042 34.2984 20.4217C32.9755 19.1465 32.2574 17.328 32.1725 15.5064C32.0867 13.6127 32.472 11.6371 33.5618 10.0556C34.475 8.70628 35.9033 7.75113 37.4595 7.30233Z" fill="#98A2B3"/>
<path d="M75.8361 7.07892C77.4606 6.79306 79.1611 7.00283 80.6987 7.58528C80.7006 8.66238 80.6987 9.7385 80.6997 10.8146C79.6255 10.0761 78.3133 9.67899 77.0098 9.72485C76.3532 9.75021 75.6312 10.0283 75.3317 10.6527C75.0937 11.2703 75.2586 12.08 75.841 12.4498C76.8371 13.1162 78.0255 13.3991 79.0577 13.9962C79.8704 14.4528 80.6587 15.0499 81.0704 15.9104C81.8441 17.5221 81.5163 19.6519 80.1562 20.8539C78.8577 22.0676 76.9874 22.4032 75.2673 22.3388C74.0459 22.2598 72.8185 22.0188 71.6955 21.5193C71.7004 20.3866 71.6887 19.2548 71.7014 18.1231C72.6458 18.809 73.7356 19.2997 74.8888 19.4988C75.6917 19.6295 76.5649 19.6353 77.3132 19.2763C78.0294 18.9202 78.1581 17.9026 77.7328 17.2802C77.3347 16.8002 76.7503 16.5357 76.1991 16.2762C75.1639 15.8109 74.0761 15.4216 73.1668 14.724C72.5278 14.2254 72.0438 13.523 71.8546 12.7308C71.5736 11.5629 71.6614 10.2468 72.3404 9.2263C73.1161 8.037 74.4634 7.32381 75.8361 7.07892Z" fill="#98A2B3"/>
<path d="M51.536 7.54135C52.5058 6.9589 53.738 6.91011 54.7966 7.26622C54.7917 8.43796 54.7966 9.6097 54.7936 10.7814C54.1009 10.3326 53.2365 10.1404 52.4189 10.2234C51.4218 10.3365 50.6316 11.1024 50.2218 11.9805C49.7769 12.9103 49.693 13.962 49.7213 14.9786C49.7213 17.3192 49.7223 19.6597 49.7213 22.0003C48.5662 22.0003 47.412 22.0003 46.2578 22.0003C46.2549 17.1084 46.2617 12.2156 46.2549 7.32378C47.411 7.30915 48.5671 7.315 49.7233 7.32085C49.7184 8.16088 49.7233 9.0009 49.7203 9.8419C50.096 8.92773 50.655 8.0399 51.536 7.54135Z" fill="#98A2B3"/>
<path d="M26.3281 7.32091C27.493 7.31603 28.6589 7.30432 29.8238 7.32676C29.8102 12.2176 29.8229 17.1095 29.818 22.0003C28.655 22.0003 27.4921 22.0003 26.3301 22.0003C26.3272 17.1075 26.3311 12.2147 26.3281 7.32091Z" fill="#98A2B3"/>
<path d="M61.262 7.04999C62.9478 6.83536 64.7264 6.93061 66.2913 7.64276C67.6493 8.25545 68.7498 9.38822 69.3596 10.7443C70.0103 12.1881 70.169 13.8094 70.0588 15.3752C69.9505 16.9039 69.4699 18.4359 68.5139 19.6506C67.5354 20.9404 66.0603 21.8149 64.4807 22.1398C63.1305 22.4208 61.7177 22.4198 60.3674 22.1359C58.7518 21.7906 57.2562 20.8524 56.3088 19.4885C55.1968 17.908 54.8803 15.8986 55.0217 14.0051C55.1173 12.3982 55.6174 10.7783 56.6438 9.51776C57.7677 8.10624 59.4914 7.27341 61.262 7.04999ZM65.2483 10.8351C64.4893 10.0674 63.3654 9.76884 62.3098 9.83807C61.4698 9.8849 60.6207 10.1687 59.9983 10.7502C59.1398 11.5278 58.7472 12.6868 58.6409 13.8137C58.5238 15.0526 58.6093 16.3588 59.175 17.4885C59.6151 18.3656 60.424 19.0551 61.3772 19.3058C62.3137 19.5487 63.3332 19.5281 64.2405 19.1799C65.0161 18.8774 65.6304 18.2387 65.9661 17.4836C66.4733 16.3636 66.5236 15.1044 66.4612 13.8957C66.3744 12.7913 66.06 11.6332 65.2483 10.8351Z" fill="#98A2B3"/>
<path d="M89.2635 7.04486C91.0167 6.82734 92.8784 6.94508 94.4784 7.75287C95.8735 8.45047 96.9555 9.71135 97.496 11.1689C97.9184 12.284 98.0663 13.4884 98.0419 14.6757C98.0447 16.4493 97.5661 18.27 96.453 19.6767C95.411 21.0386 93.8166 21.923 92.1337 22.2011C90.4879 22.4674 88.7493 22.3986 87.1854 21.7831C85.601 21.1597 84.2834 19.8871 83.6161 18.3203C82.9205 16.7232 82.8477 14.926 83.0643 13.2197C83.2917 11.5133 84.0646 9.84456 85.3817 8.7099C86.4607 7.76279 87.85 7.22631 89.2635 7.04486ZM90.2118 9.84076C89.2402 9.89541 88.2766 10.3143 87.6483 11.0712C86.9596 11.8819 86.6639 12.9522 86.5839 13.9951C86.5009 15.0721 86.5833 16.1874 86.9999 17.1943C87.3462 18.039 88.0038 18.7737 88.8524 19.1328C89.6388 19.4713 90.5251 19.532 91.3661 19.4062C92.1495 19.2911 92.9086 18.9163 93.4188 18.3017C93.9252 17.69 94.1924 16.9191 94.327 16.1464C94.4968 15.1093 94.4987 14.0409 94.2977 13.0087C94.1192 12.1287 93.7296 11.2542 93.0262 10.6708C92.2633 10.0008 91.2038 9.7715 90.2118 9.84076Z" fill="#98A2B3"/>
</svg>
