<svg width="107" height="30" viewBox="0 0 107 30" fill="none" xmlns="http://www.w3.org/2000/svg">
<path d="M8.99469 1.77665C9.73661 1.77665 12.9768 1.5361 16.9182 4.5067C17.095 4.64002 17.1298 4.89216 17.0023 5.07184L15.1098 7.72366C14.9736 7.91493 14.7098 7.95261 14.5244 7.8106C14.1766 7.54107 13.5825 7.11504 12.8869 6.75857C11.7682 6.18763 10.2815 5.70364 8.99759 5.70364C7.71371 5.70364 5.65312 6.12387 5.65312 8.14389C5.65312 9.76975 7.0906 10.3813 11.5248 11.4739C14.4113 12.2245 17.779 13.6098 17.779 18.0324C17.779 22.1014 14.3968 24.6662 9.73372 24.6662C6.92251 24.6662 3.06797 23.5997 0.62193 21.1334C0.474124 20.9827 0.468331 20.7422 0.607443 20.5828L2.73469 18.0759C2.88539 17.8991 3.15491 17.8817 3.3259 18.0411C4.13449 18.7975 6.49938 20.7132 9.72213 20.7132C13.5622 20.7132 13.4086 18.4004 13.4086 18.0556C13.4086 17.3194 12.8753 16.2877 10.9799 15.7544C9.08453 15.2212 4.33157 14.3314 2.5521 12.2593C1.4595 10.9638 1.30589 9.5263 1.30589 8.44529C1.30589 6.00795 2.88248 1.77665 8.99469 1.77665Z" fill="#98A2B3"/>
<path d="M28.8007 7.07446C25.378 7.07446 23.529 9.59296 23.529 9.59296V7.84827C23.529 7.62221 23.3464 7.43673 23.1175 7.43673H19.6049C19.3788 7.43673 19.1934 7.61932 19.1934 7.84827V28.9381C19.1934 29.1642 19.3759 29.3497 19.6049 29.3497H23.132C23.358 29.3497 23.5435 29.1671 23.5435 28.9381V22.368C23.5435 22.368 25.2592 24.6691 28.9862 24.6691C31.9423 24.6691 36.7069 22.2956 36.7069 15.9428C36.704 9.59006 32.2235 7.07446 28.8007 7.07446ZM27.8878 20.9189C25.4968 20.9189 23.4681 18.841 23.4681 15.8704C23.4681 14.059 24.6042 10.8942 27.8386 10.8942C31.0729 10.8942 32.3075 13.5026 32.3075 15.8704C32.3075 18.2381 31.0033 20.9189 27.8878 20.9189Z" fill="#98A2B3"/>
<path d="M46.8479 7.07446C41.3183 7.07446 37.8868 11.6217 37.8868 15.908C37.8868 20.6059 41.5327 24.7126 46.8827 24.7126C52.2327 24.7126 55.8786 20.4871 55.8786 15.908C55.8815 11.3289 52.3776 7.07446 46.8479 7.07446ZM46.8827 20.9189C44.625 20.9189 42.1616 19.0293 42.1616 15.8935C42.1616 12.7577 44.3845 10.8971 46.8827 10.8971C48.8013 10.8971 51.5313 12.4853 51.5313 15.8935C51.5313 19.3018 49.1433 20.9189 46.8827 20.9189Z" fill="#98A2B3"/>
<path d="M66.9405 10.7986V7.80481C66.9405 7.57875 66.7579 7.39327 66.5289 7.39327H62.5208V3.33585C62.5208 3.1098 62.3382 2.92432 62.1093 2.92432H58.6547C58.4286 2.92432 58.2431 3.1069 58.2431 3.33585V7.39327H56.5535C56.3274 7.39327 56.142 7.57585 56.142 7.80481V10.7986C56.142 11.0247 56.3245 11.2101 56.5535 11.2101H58.2431C58.2431 11.2101 58.2431 17.7802 58.2431 19.6872C58.2431 21.5942 59.1126 24.6141 62.9034 24.6141C64.648 24.6141 66.1377 24.0026 66.6999 23.7417C66.8448 23.6751 66.9376 23.5302 66.9376 23.3679V20.435C66.9376 20.1712 66.642 20.0118 66.4246 20.1625C66.0276 20.435 65.3813 20.7248 64.4249 20.7248C62.6135 20.7248 62.5179 19.4931 62.5179 18.6236C62.5179 17.7542 62.5179 11.2101 62.5179 11.2101H66.526C66.7579 11.2101 66.9405 11.0247 66.9405 10.7986Z" fill="#98A2B3"/>
<path d="M70.8673 5.3384C72.3415 5.3384 73.5365 4.14336 73.5365 2.6692C73.5365 1.19504 72.3415 0 70.8673 0C69.3932 0 68.1981 1.19504 68.1981 2.6692C68.1981 4.14336 69.3932 5.3384 70.8673 5.3384Z" fill="#98A2B3"/>
<path d="M72.592 24.3243H69.1316C68.9056 24.3243 68.7201 24.1417 68.7201 23.9127V7.80479C68.7201 7.57874 68.9027 7.39325 69.1316 7.39325H72.592C72.8181 7.39325 73.0036 7.57584 73.0036 7.80479V23.9127C73.0036 24.1388 72.8181 24.3243 72.592 24.3243Z" fill="#98A2B3"/>
<path d="M76.8202 11.2101H75.1537C74.9277 11.2101 74.7422 11.0275 74.7422 10.7985V7.80475C74.7422 7.57869 74.9248 7.39321 75.1537 7.39321H76.8202C76.8202 7.39321 76.8202 7.03094 76.8202 6.3064C76.8202 5.58186 76.9419 1.01727 82.06 1.01727C84.5959 1.01727 85.4219 1.58531 85.4219 1.58531C85.4219 1.58531 85.4219 4.35594 85.4219 4.66315C85.4219 4.97035 85.3118 5.22539 84.9872 5.09787C84.6626 4.97035 83.7004 4.71821 82.9237 4.71821C82.147 4.71821 81.0747 5.17033 81.0747 6.54695C81.0747 7.03674 81.0747 7.39321 81.0747 7.39321H87.3491C87.5201 7.39321 87.6708 7.49754 87.7317 7.65694L92.1224 19.0119L96.0668 7.69462C96.1248 7.52942 96.2813 7.41929 96.4552 7.41929H100.313C100.495 7.41929 100.623 7.60188 100.556 7.76997C99.6518 10.1117 94.525 23.3765 93.8642 25.0603C93.1397 26.9094 91.908 29.425 88.3751 29.425C86.3261 29.425 85.0045 28.7381 84.4539 28.3787C84.2829 28.2657 84.2191 28.0454 84.3061 27.86L85.5639 25.1618C85.6161 25.0488 85.7552 25.0053 85.8624 25.0719C86.2218 25.2922 87.042 25.7211 87.9954 25.7211C89.3982 25.7211 90.0242 24.0634 90.0242 24.0634L84.6452 11.2101H81.1036V23.9446C81.1036 24.1706 80.9211 24.3561 80.6921 24.3561H77.2201C76.9941 24.3561 76.8086 24.1706 76.8086 23.9446L76.8202 11.2101Z" fill="#98A2B3"/>
<path d="M102.666 8.56689H103.95C104.306 8.56689 104.582 8.66833 104.767 8.85092C104.924 9.00742 105.008 9.22767 105.008 9.49141V9.5001C105.008 9.95221 104.764 10.2362 104.408 10.3695L105.092 11.3723H104.37L103.77 10.4739H103.762H103.283V11.3723H102.666V8.56689ZM103.909 9.92903C104.211 9.92903 104.382 9.76963 104.382 9.53198V9.52329C104.382 9.25955 104.196 9.12334 103.898 9.12334H103.283V9.92903H103.909Z" fill="#98A2B3"/>
<path d="M103.785 12.6823C102.324 12.6823 101.136 11.4941 101.136 10.0334C101.136 8.57276 102.324 7.38452 103.785 7.38452C105.245 7.38452 106.434 8.57276 106.434 10.0334C106.434 11.4941 105.243 12.6823 103.785 12.6823ZM103.785 7.67724C102.484 7.67724 101.426 8.73506 101.426 10.0363C101.426 11.3376 102.484 12.3954 103.785 12.3954C105.086 12.3954 106.144 11.3376 106.144 10.0363C106.144 8.73506 105.083 7.67724 103.785 7.67724Z" fill="#98A2B3"/>
</svg>
