<svg width="103" height="34" viewBox="0 0 103 34" fill="none" xmlns="http://www.w3.org/2000/svg">
<path d="M25.4695 11.7927H13.5861V15.3189H22.0137C21.5978 20.2641 17.4834 22.3723 13.6004 22.3723C8.63169 22.3723 4.2971 18.4628 4.2971 12.9844C4.2971 7.64672 8.42984 3.53641 13.6116 3.53641C17.6098 3.53641 19.9657 6.08497 19.9657 6.08497L22.4347 3.52824C22.4347 3.52824 19.2653 0 13.4862 0C6.12696 0 0.433472 6.21136 0.433472 12.9212C0.433472 19.4955 5.78953 25.9067 13.6748 25.9067C20.6099 25.9067 25.6867 21.1561 25.6867 14.1303C25.6846 12.649 25.4695 11.7927 25.4695 11.7927Z" fill="#98A2B3"/>
<path d="M35.2053 9.23901C30.3294 9.23901 26.8348 13.0506 26.8348 17.4974C26.8348 22.0094 30.2244 25.8923 35.2624 25.8923C39.8233 25.8923 43.5605 22.4059 43.5605 17.5942C43.5605 12.0791 39.2137 9.23901 35.2053 9.23901ZM35.2532 12.5093C37.6509 12.5093 39.9232 14.4483 39.9232 17.5718C39.9232 20.6291 37.6601 22.6231 35.242 22.6231C32.5844 22.6231 30.4885 20.4945 30.4885 17.5473C30.4885 14.6634 32.5589 12.5093 35.2532 12.5093Z" fill="#98A2B3"/>
<path d="M53.4094 9.23901C48.5335 9.23901 45.0389 13.0506 45.0389 17.4974C45.0389 22.0094 48.4285 25.8923 53.4665 25.8923C58.0274 25.8923 61.7646 22.4059 61.7646 17.5942C61.7646 12.0791 57.4178 9.23901 53.4094 9.23901ZM53.4584 12.5093C55.8561 12.5093 58.1284 14.4483 58.1284 17.5718C58.1284 20.6291 55.8652 22.6231 53.4472 22.6231C50.7895 22.6231 48.6936 20.4945 48.6936 17.5473C48.6936 14.6634 50.764 12.5093 53.4584 12.5093Z" fill="#98A2B3"/>
<path d="M71.2647 9.24829C66.7894 9.24829 63.2714 13.168 63.2714 17.5678C63.2714 22.5793 67.3501 25.9027 71.1882 25.9027C73.5614 25.9027 74.8235 24.9607 75.7553 23.8791V25.5214C75.7553 28.3941 74.011 30.1139 71.3778 30.1139C68.8344 30.1139 67.5591 28.2229 67.1156 27.1494L63.9156 28.4869C65.0513 30.8877 67.3358 33.3903 71.4043 33.3903C75.8541 33.3903 79.2458 30.5869 79.2458 24.7089V9.7468H75.7542V11.1577C74.6818 10.0017 73.2138 9.24829 71.2647 9.24829ZM71.5888 12.5115C73.7837 12.5115 76.0366 14.3852 76.0366 17.5852C76.0366 20.8371 73.7878 22.6303 71.5409 22.6303C69.1545 22.6303 66.9352 20.6924 66.9352 17.6168C66.9342 14.4198 69.2401 12.5115 71.5888 12.5115Z" fill="#98A2B3"/>
<path d="M94.7677 9.22784C90.5463 9.22784 87.0007 12.5869 87.0007 17.5433C87.0007 22.7882 90.952 25.8985 95.1724 25.8985C98.6956 25.8985 100.858 23.9708 102.148 22.2449L99.2695 20.3294C98.5223 21.4885 97.2735 22.6211 95.1898 22.6211C92.8492 22.6211 91.7727 21.3396 91.1059 20.098L102.271 15.4657L101.691 14.1078C100.614 11.4492 98.0972 9.22784 94.7677 9.22784ZM94.9135 12.4299C96.4345 12.4299 97.5294 13.2383 97.9942 14.2088L90.5381 17.3252C90.217 14.9122 92.5026 12.4299 94.9135 12.4299Z" fill="#98A2B3"/>
<path d="M81.6794 25.4041H85.3463V0.86145H81.6794V25.4041Z" fill="#98A2B3"/>
</svg>
