<svg width="20" height="16" viewBox="0 0 20 16" fill="none" xmlns="http://www.w3.org/2000/svg">
<path fill-rule="evenodd" clip-rule="evenodd" d="M13.3145 0.0358391C13.4663 -0.0261726 13.6426 -0.00664134 13.7803 0.0861321C13.89 0.160741 13.9648 0.274726 13.9903 0.402335L14 0.500195V12.5002C14 12.6662 13.9175 12.821 13.7803 12.9143C13.6963 12.9709 13.5986 13.0002 13.5 13.0002C13.458 13.0002 13.416 12.995 13.375 12.9844L13.3145 12.9646L9 11.2388V14.0002C9 15.1032 8.10303 16.0002 7 16.0002C5.94711 16.0002 5.08197 15.1829 5.0055 14.1493L5 14.0002V9.63874L3.40356 9.00019H0.5C0.25434 9.00019 0.0503472 8.8235 0.00804827 8.59013L0 8.50019V4.50019C0 4.25453 0.176698 4.05054 0.410065 4.00824L0.5 4.00019H3.40356L13.3145 0.0358391ZM6 10.0388V14.0002C6 14.5515 6.44873 15.0002 7 15.0002C7.51189 15.0002 7.93537 14.6133 7.99326 14.1166L8 14.0002V10.8388L6 10.0388ZM15.7455 8.5646C15.5389 8.44792 15.272 8.492 15.1157 8.68037C14.939 8.89277 14.9678 9.2082 15.1802 9.38447L18.1802 11.8801L18.2536 11.9309C18.3302 11.9744 18.4153 11.9958 18.4995 11.9958C18.6431 11.9958 18.7856 11.9343 18.8843 11.8156C19.061 11.6032 19.0322 11.2878 18.8198 11.1115L15.8198 8.61592L15.7455 8.5646ZM13 1.23848L4 4.83876V8.16163L13 11.7619V1.23848ZM1 5.00019H3V8.00019H1V5.00019ZM19.5 6.00605C19.7764 6.00605 20 6.22969 20 6.50605C20 6.75171 19.8233 6.95571 19.5899 6.99801L19.5 7.00605H15.5C15.2236 7.00605 15 6.78242 15 6.50605C15 6.26039 15.1767 6.0564 15.4101 6.0141L15.5 6.00605H19.5ZM18.8838 1.17549C18.7075 0.964062 18.3916 0.934277 18.1797 1.11201L15.1797 3.61641L15.1159 3.68013C14.9639 3.86198 14.9587 4.13214 15.1162 4.32051C15.2148 4.43916 15.3569 4.50019 15.5005 4.50019C15.6133 4.50019 15.7271 4.46211 15.8203 4.38398L18.8203 1.87959L18.8841 1.81587C19.0361 1.63401 19.0413 1.36386 18.8838 1.17549Z" fill="#0F315C"/>
</svg>
